<svg width="22" height="22" viewBox="0 0 22 22" fill="none" xmlns="http://www.w3.org/2000/svg">
<path fill-rule="evenodd" clip-rule="evenodd" d="M2.20001 11.0132C2.20001 6.37748 5.90481 2.20001 11.0176 2.20001C16.016 2.20001 19.8 6.29816 19.8 10.9868C19.8 16.4245 15.3648 19.8 11 19.8C9.55681 19.8 7.95609 19.4122 6.67129 18.6543C6.22161 18.3811 5.84321 18.1784 5.35921 18.337L3.58161 18.8658C3.13281 19.0068 2.72801 18.6543 2.86001 18.1784L3.44961 16.2042C3.54641 15.931 3.52881 15.6402 3.38801 15.411C2.63121 14.0185 2.20001 12.4939 2.20001 11.0132Z" fill="white"/>
<path opacity="0.25" d="M11.0176 2.20001C5.90481 2.20001 2.20001 6.37748 2.20001 11.0132C2.20001 12.4939 2.63121 14.0185 3.38801 15.411C3.52881 15.6402 3.54641 15.931 3.44961 16.2042L2.86001 18.1784C2.72801 18.6543 3.13281 19.0068 3.58161 18.8658L5.35921 18.337C5.84321 18.1784 6.22161 18.3811 6.67129 18.6543C7.95609 19.4122 9.55681 19.8 11 19.8C15.3648 19.8 19.8 16.4245 19.8 10.9868C19.8 6.29816 16.016 2.20001 11.0176 2.20001Z" fill="#1A1926"/>
<path d="M8.52456 9.62514C9.287 9.62514 9.8991 10.2382 9.8991 11.0017C9.8991 11.7546 9.287 12.3676 8.52456 12.3783C7.77286 12.3783 7.15002 11.7546 7.15002 11.0017C7.15002 10.2382 7.76212 9.62514 8.52456 9.62514ZM13.4755 9.62514C14.2379 9.62514 14.85 10.2382 14.85 11.0017C14.85 11.7546 14.2379 12.3783 13.4755 12.3783C12.713 12.3676 12.1009 11.7546 12.1009 10.991C12.1009 10.2382 12.7238 9.61438 13.4755 9.62514Z" fill="#1A1926"/>
</svg>
