<svg width="30" height="30" viewBox="0 0 30 30" fill="none" xmlns="http://www.w3.org/2000/svg">
<circle cx="15" cy="15" r="15" fill="url(#paint0_radial_2065_314)"/>
<mask id="mask0_2065_314" style="mask-type:alpha" maskUnits="userSpaceOnUse" x="0" y="0" width="30" height="30">
<circle cx="15" cy="15" r="15" fill="#C4C4C4"/>
</mask>
<g mask="url(#mask0_2065_314)">
<path d="M25.2252 22.2344C25.258 19.9659 24.5018 19.5713 24.1238 18.2398C23.7431 16.8993 24.1304 15.9839 23.6799 14.5C23.2607 13.1191 22.4992 12.8858 22.2662 10.9245C21.8716 7.60381 18.2879 5.89421 16.5125 5.89421C16.0105 5.89421 15.6677 6.02163 15.4372 6.17403C15.1705 6.35051 14.8297 6.35051 14.5631 6.17403C14.3326 6.02163 13.9898 5.89421 13.4878 5.89421C11.7124 5.89421 8.12869 7.60381 7.73416 10.9245C7.50111 12.8858 6.73961 13.1191 6.32043 14.5C5.86996 15.9839 6.25722 16.8993 5.8766 18.2398C5.4985 19.5713 4.74231 19.9659 4.77518 22.2344C4.8133 24.8653 3.29567 25.4565 3.88746 27.199C4.32915 28.4994 6.71496 29.5662 6.71496 29.5662H23.2854C23.2854 29.5662 25.6712 28.4994 26.1129 27.199C26.7046 25.4565 25.187 24.8653 25.2252 22.2344Z" fill="url(#paint1_linear_2065_314)"/>
<path d="M15.0001 6.30637C14.8483 6.30637 14.6964 6.26227 14.5631 6.17403C14.3326 6.02163 13.9898 5.89421 13.4878 5.89421C11.7124 5.89421 8.12869 7.60381 7.73416 10.9245C7.50111 12.8858 6.73961 13.1191 6.32043 14.5C5.86996 15.9839 6.25722 16.8993 5.8766 18.2398C5.4985 19.5713 4.74231 19.9659 4.77518 22.2344C4.8133 24.8653 3.29567 25.4565 3.88746 27.199C4.32915 28.4994 6.71496 29.5662 6.71496 29.5662H15.0001V6.30637Z" fill="url(#paint2_linear_2065_314)"/>
<path d="M22.4951 25.0637L18.4203 23.6255C17.7893 23.4029 17.3674 22.8065 17.3674 22.1374V20.0977H12.6329V22.1374C12.6329 22.8065 12.211 23.4029 11.58 23.6255L7.50519 25.0637C6.55876 25.3978 5.92587 26.2923 5.92587 27.296V29.172C5.92587 29.8256 6.4558 30.3555 7.10946 30.3555H22.8908C23.5445 30.3555 24.0744 29.8256 24.0744 29.172V27.296C24.0744 26.2923 23.4415 25.3978 22.4951 25.0637Z" fill="url(#paint3_linear_2065_314)"/>
<path d="M22.4951 25.0638L19.7762 24.1042C18.7061 25.5832 17.2498 27.2142 15.5547 28.1179C15.2089 28.3023 14.7914 28.3023 14.4456 28.1179C12.7504 27.2142 11.2941 25.5832 10.2241 24.1042L7.5052 25.0638C6.55877 25.3979 5.92589 26.2924 5.92589 27.2961V29.1721C5.92589 29.8257 6.45581 30.3557 7.10948 30.3557H22.8908C23.5445 30.3557 24.0744 29.8257 24.0744 29.1721V27.2961C24.0744 26.2924 23.4415 25.3979 22.4951 25.0638Z" fill="url(#paint4_linear_2065_314)"/>
<path d="M12.633 21.171C13.3614 21.4931 14.1618 21.6758 15.0002 21.6758C15.8385 21.6758 16.6389 21.4931 17.3673 21.171V20.0977H12.6329L12.633 21.171Z" fill="url(#paint5_linear_2065_314)"/>
<path d="M15.0002 20.8864C12.1675 20.8864 9.87121 18.5901 9.87121 15.7574V9.05042H20.1291V15.7575C20.1291 18.5901 17.8328 20.8864 15.0002 20.8864Z" fill="url(#paint6_linear_2065_314)"/>
<path d="M9.87121 9.05042V15.7575C9.87121 18.5901 12.1675 20.8864 15.0002 20.8864C15.2692 20.8864 15.5313 20.8594 15.7892 20.8196C13.3322 20.4391 11.4493 18.3211 11.4493 15.7575V13.7057C11.4493 13.3813 11.5499 13.0679 11.7217 12.7927C11.7227 12.7913 11.7236 12.7898 11.7245 12.7884C12.3723 11.7488 12.9787 11.596 13.6807 11.4191C14.084 11.3175 14.5537 11.1991 15.0001 10.9017C15.4465 11.1991 15.9163 11.3175 16.3195 11.4191C17.0216 11.596 17.628 11.7488 18.2757 12.7883C18.8784 13.7553 19.5527 14.2898 20.129 14.7027V9.05042H9.87121Z" fill="url(#paint7_linear_2065_314)"/>
<path d="M15.0001 18.5195C14.408 18.5195 13.862 18.3295 13.5395 18.0113C13.3842 17.8579 13.3827 17.6083 13.5356 17.4534C13.6894 17.2982 13.939 17.2966 14.0935 17.4496C14.2249 17.579 14.5408 17.7304 15.0001 17.7304C15.4594 17.7304 15.7753 17.579 15.9067 17.4496C16.0612 17.2966 16.3109 17.2982 16.4646 17.4534C16.6175 17.6083 16.616 17.858 16.4607 18.0113C16.1383 18.3295 15.5923 18.5195 15.0001 18.5195Z" fill="#A06E50"/>
<path d="M12.633 15.7575C12.4149 15.7575 12.2384 15.581 12.2384 15.363V14.9684C12.2384 14.7503 12.4149 14.5739 12.633 14.5739C12.851 14.5739 13.0275 14.7504 13.0275 14.9684V15.363C13.0275 15.581 12.851 15.7575 12.633 15.7575Z" fill="url(#paint8_radial_2065_314)"/>
<path d="M17.3673 15.7575C17.1493 15.7575 16.9728 15.581 16.9728 15.363V14.9684C16.9728 14.7503 17.1493 14.5739 17.3673 14.5739C17.5854 14.5739 17.7619 14.7504 17.7619 14.9684V15.363C17.7619 15.581 17.5854 15.7575 17.3673 15.7575Z" fill="url(#paint9_radial_2065_314)"/>
<path d="M13.0275 14.1799H12.2384C12.0203 14.1799 11.8439 14.0034 11.8439 13.7853C11.8439 13.5673 12.0204 13.3908 12.2384 13.3908H13.0275C13.2456 13.3908 13.422 13.5673 13.422 13.7853C13.422 14.0034 13.2455 14.1799 13.0275 14.1799Z" fill="url(#paint10_linear_2065_314)"/>
<path d="M17.7618 14.1798H16.9728C16.7547 14.1798 16.5783 14.0033 16.5783 13.7853C16.5783 13.5672 16.7547 13.3908 16.9728 13.3908H17.7618C17.9799 13.3908 18.1564 13.5672 18.1564 13.7853C18.1564 14.0033 17.9799 14.1798 17.7618 14.1798Z" fill="url(#paint11_linear_2065_314)"/>
<path d="M8.81473 27.2123L6.8009 25.4636C6.59456 25.6318 6.42118 25.8333 6.28268 26.0582L8.29766 27.8079C8.55655 28.0329 8.70528 28.3589 8.70528 28.7018V30.355H9.49434V28.7018C9.49439 28.13 9.24667 27.5872 8.81473 27.2123Z" fill="url(#paint12_linear_2065_314)"/>
<path d="M21.2033 27.2123L23.2171 25.4637C23.4235 25.6319 23.5968 25.8334 23.7353 26.0583L21.7204 27.808C21.4615 28.033 21.3127 28.3589 21.3127 28.7019V30.3551H20.5237V28.7018C20.5236 28.13 20.7714 27.5872 21.2033 27.2123Z" fill="url(#paint13_linear_2065_314)"/>
<path d="M24.1238 18.2398C23.7431 16.8993 24.1304 15.9839 23.6799 14.5C23.2607 13.1191 22.4992 12.8858 22.2662 10.9245C21.8716 7.60381 18.2879 5.89421 16.5125 5.89421C16.0105 5.89421 15.6677 6.02163 15.4373 6.17403C15.3039 6.26227 15.152 6.30637 15.0002 6.30637V9.83956C16.0193 11.1218 17.5317 10.1026 18.9455 12.3711C20.1472 14.2994 21.6561 14.2506 22.1868 15.7709C22.339 16.2066 22.2564 16.6721 22.2929 17.1322C22.4963 19.7029 24.4689 20.8865 25.3557 23.5692C25.2711 23.1861 25.2177 22.7504 25.2252 22.2345C25.258 19.9659 24.5019 19.5713 24.1238 18.2398Z" fill="url(#paint14_linear_2065_314)"/>
<path d="M5.87654 18.2398C6.25717 16.8993 5.8699 15.9839 6.32038 14.5C6.73956 13.1191 7.5011 12.8858 7.7341 10.9245C8.12868 7.60381 11.7124 5.89421 13.4878 5.89421C13.9898 5.89421 14.3326 6.02163 14.563 6.17403C14.6964 6.26227 14.8483 6.30637 15.0001 6.30637V9.83956C13.9809 11.1218 12.4686 10.1026 11.0548 12.3711C9.85314 14.2994 8.34424 14.2506 7.81346 15.7709C7.66134 16.2066 7.74385 16.6721 7.70744 17.1322C7.50402 19.7029 5.53136 20.8865 4.6446 23.5692C4.72916 23.1861 4.78262 22.7504 4.77512 22.2345C4.74225 19.9659 5.49844 19.5713 5.87654 18.2398Z" fill="url(#paint15_linear_2065_314)"/>
</g>
<defs>
<radialGradient id="paint0_radial_2065_314" cx="0" cy="0" r="1" gradientUnits="userSpaceOnUse" gradientTransform="translate(4.6875 4.6875) rotate(48.4682) scale(29.2217)">
<stop offset="0.449021" stop-color="#FEC0B2"/>
<stop offset="1" stop-color="#FF866B"/>
</radialGradient>
<linearGradient id="paint1_linear_2065_314" x1="15.0002" y1="5.89421" x2="15.0002" y2="29.5662" gradientUnits="userSpaceOnUse">
<stop stop-color="#33282D"/>
<stop offset="1" stop-color="#6E5561"/>
</linearGradient>
<linearGradient id="paint2_linear_2065_314" x1="9.37524" y1="5.89421" x2="9.37524" y2="29.5662" gradientUnits="userSpaceOnUse">
<stop stop-color="#1A1417"/>
<stop offset="1" stop-color="#5A4650"/>
</linearGradient>
<linearGradient id="paint3_linear_2065_314" x1="11.4356" y1="23.6346" x2="16.0214" y2="29.5092" gradientUnits="userSpaceOnUse">
<stop stop-color="#D4A06C"/>
<stop offset="1" stop-color="#FABD80"/>
</linearGradient>
<linearGradient id="paint4_linear_2065_314" x1="8.74998" y1="24.6875" x2="20.9375" y2="29.375" gradientUnits="userSpaceOnUse">
<stop stop-color="#ACED8E"/>
<stop offset="1" stop-color="#A6FFAA"/>
</linearGradient>
<linearGradient id="paint5_linear_2065_314" x1="12.7848" y1="20.3222" x2="14.0011" y2="22.807" gradientUnits="userSpaceOnUse">
<stop stop-color="#C58646"/>
<stop offset="1" stop-color="#C68748" stop-opacity="0.06"/>
</linearGradient>
<linearGradient id="paint6_linear_2065_314" x1="10.3848" y1="10.3966" x2="20.0726" y2="15.9066" gradientUnits="userSpaceOnUse">
<stop stop-color="#EDB379"/>
<stop offset="1" stop-color="#FFC182"/>
</linearGradient>
<linearGradient id="paint7_linear_2065_314" x1="10.2003" y1="10.7348" x2="16.5035" y2="13.6329" gradientUnits="userSpaceOnUse">
<stop stop-color="#C58646"/>
<stop offset="1" stop-color="#C68748" stop-opacity="0.06"/>
</linearGradient>
<radialGradient id="paint8_radial_2065_314" cx="0" cy="0" r="1" gradientUnits="userSpaceOnUse" gradientTransform="translate(12.4758 14.9279) rotate(71.5651) scale(0.99803 0.665353)">
<stop stop-color="#040404"/>
<stop offset="1" stop-color="#767676"/>
</radialGradient>
<radialGradient id="paint9_radial_2065_314" cx="0" cy="0" r="1" gradientUnits="userSpaceOnUse" gradientTransform="translate(17.2102 14.9279) rotate(71.5651) scale(0.99803 0.665353)">
<stop stop-color="#040404"/>
<stop offset="1" stop-color="#767676"/>
</radialGradient>
<linearGradient id="paint10_linear_2065_314" x1="11.9468" y1="13.5937" x2="12.1072" y2="14.4127" gradientUnits="userSpaceOnUse">
<stop stop-color="#403239"/>
<stop offset="1" stop-color="#806371"/>
</linearGradient>
<linearGradient id="paint11_linear_2065_314" x1="16.6811" y1="13.5937" x2="16.8416" y2="14.4127" gradientUnits="userSpaceOnUse">
<stop stop-color="#403239"/>
<stop offset="1" stop-color="#806371"/>
</linearGradient>
<linearGradient id="paint12_linear_2065_314" x1="7.81248" y1="24.9996" x2="7.88851" y2="30.355" gradientUnits="userSpaceOnUse">
<stop stop-color="#87BA70"/>
<stop offset="1" stop-color="#87BA70" stop-opacity="0"/>
</linearGradient>
<linearGradient id="paint13_linear_2065_314" x1="22.1875" y1="24.9997" x2="22.1295" y2="30.3551" gradientUnits="userSpaceOnUse">
<stop stop-color="#86C985"/>
<stop offset="1" stop-color="#86C985" stop-opacity="0"/>
</linearGradient>
<linearGradient id="paint14_linear_2065_314" x1="15.9375" y1="6.24974" x2="25" y2="23.1247" gradientUnits="userSpaceOnUse">
<stop stop-color="#5C4B53"/>
<stop offset="1" stop-color="#7A646F"/>
</linearGradient>
<linearGradient id="paint15_linear_2065_314" x1="11.5625" y1="5.93724" x2="4.68749" y2="26.5622" gradientUnits="userSpaceOnUse">
<stop offset="0.00373261" stop-color="#4A3B43"/>
<stop offset="1" stop-color="#826875"/>
</linearGradient>
</defs>
</svg>
