<svg width="22" height="22" viewBox="0 0 22 22" fill="none" xmlns="http://www.w3.org/2000/svg">
<path fill-rule="evenodd" clip-rule="evenodd" d="M16.9985 5.13139C16.4509 4.96252 15.8718 4.8961 15.2904 4.94106H12.7083C12.7082 4.94106 12.7081 4.94106 12.708 4.94106H12.6803C12.0454 4.93697 11.4446 4.65111 11.0417 4.1602L10.1888 2.98111C9.78682 2.47862 9.17427 2.19027 8.53004 2.20025H6.69911C3.41282 2.20025 2.20001 4.12897 2.20001 7.40857V9.91901C2.20001 9.92032 2.20001 9.92163 2.20001 9.92294V10.9538V14.5456C2.20001 14.9353 2.23124 15.3244 2.29391 15.7091C2.39246 16.3889 2.62659 17.0421 2.98246 17.63C3.14457 17.9138 3.34173 18.1761 3.5693 18.4109C4.61527 19.3675 6.00205 19.8654 7.41895 19.793H14.5705C15.9852 19.8659 17.3697 19.3678 18.4124 18.4109C18.6427 18.1766 18.8425 17.9142 19.007 17.63C19.365 17.0417 19.6042 16.3891 19.7112 15.7091C19.7674 15.3238 19.7962 14.935 19.7973 14.5456V10.9541C19.7973 10.954 19.7973 10.9538 19.7973 10.9537V9.92294C19.7973 9.92281 19.7973 9.92269 19.7973 9.92257C19.8079 9.56995 19.7937 9.21768 19.7551 8.86833C19.5692 6.84429 18.7563 5.58478 16.9985 5.13139ZM6.5739 12.6638H15.5017C15.7184 12.6662 15.9213 12.7704 16.0494 12.9449C16.1607 13.0747 16.2168 13.2428 16.2059 13.4134C16.1998 13.6074 16.1161 13.7909 15.9735 13.923C15.8309 14.055 15.6412 14.1246 15.4469 14.1161H6.5739C6.17202 14.1161 5.84623 13.791 5.84623 13.39C5.84623 12.9889 6.17202 12.6638 6.5739 12.6638Z" fill="white"/>
<path opacity="0.4" d="M15.2982 4.94106H12.7083C12.0631 4.94532 11.4506 4.65832 11.0417 4.1602L10.1888 2.98111C9.78682 2.47862 9.17427 2.19027 8.53004 2.20025H6.69911C3.41282 2.20025 2.20001 4.12897 2.20001 7.40857V10.9537C2.19593 11.3435 19.7962 11.343 19.7973 10.9537V9.92294C19.813 6.64333 18.6315 4.94106 15.2982 4.94106Z" fill="#1A1926"/>
<path d="M15.2904 4.94107C16.4386 4.85227 17.5783 5.19793 18.4828 5.90934C18.587 5.99767 18.6838 6.09429 18.7723 6.19825C19.0538 6.52744 19.2714 6.90612 19.4139 7.31488C19.6943 8.155 19.824 9.03786 19.7973 9.92295V14.5456C19.7962 14.935 19.7674 15.3238 19.7112 15.7091C19.6042 16.3891 19.365 17.0417 19.007 17.63C18.8425 17.9142 18.6427 18.1766 18.4124 18.4109C17.3697 19.3678 15.9852 19.8659 14.5705 19.793H7.41895C6.00205 19.8654 4.61527 19.3675 3.5693 18.4109C3.34173 18.1761 3.14457 17.9138 2.98246 17.63C2.62659 17.0421 2.39246 16.3889 2.29391 15.7091C2.23124 15.3244 2.20001 14.9353 2.20001 14.5456V9.92295C2.20001 9.53688 2.22076 9.15108 2.26261 8.76728C2.28608 8.58768 2.34085 8.41589 2.34085 8.2441C2.42028 7.78094 2.56518 7.33136 2.7712 6.90883C3.38151 5.6048 4.63343 4.94107 6.68345 4.94107H15.2904ZM15.5017 12.6638H6.5739C6.17202 12.6638 5.84623 12.9889 5.84623 13.39C5.84623 13.791 6.17202 14.1162 6.5739 14.1162H15.4469C15.6412 14.1246 15.8309 14.055 15.9735 13.923C16.1161 13.791 16.1998 13.6074 16.2059 13.4134C16.2168 13.2428 16.1607 13.0747 16.0494 12.9449C15.9213 12.7704 15.7184 12.6662 15.5017 12.6638Z" fill="#1A1926"/>
</svg>
