<svg width="20" height="20" viewBox="0 0 20 20" fill="none" xmlns="http://www.w3.org/2000/svg">
<path d="M13.4663 18H6.53295C3.82152 18 2 16.0983 2 13.2674V6.73338C2 3.90249 3.82152 2 6.53295 2H13.4671C16.1785 2 18 3.90249 18 6.73338V13.2674C18 16.0983 16.1785 18 13.4663 18Z" fill="white"/>
<path opacity="0.25" d="M13.4663 18H6.53295C3.82152 18 2 16.0983 2 13.2674V6.73338C2 3.90249 3.82152 2 6.53295 2H13.4671C16.1785 2 18 3.90249 18 6.73338V13.2674C18 16.0983 16.1785 18 13.4663 18Z" fill="#1A1926"/>
<path d="M12.7427 10.8717C12.9203 10.6389 13.5795 9.91088 14.4315 10.4293C14.9747 10.7557 15.4315 11.1973 15.9203 11.6701C16.1067 11.8509 16.2403 12.0573 16.3283 12.2773C16.5947 12.9429 16.4563 13.7429 16.1715 14.4021C15.8339 15.1869 15.1875 15.7797 14.3731 16.0389C14.0115 16.1549 13.6323 16.2045 13.2539 16.2045H6.54911C5.88191 16.2045 5.29151 16.0493 4.80751 15.7581C4.50431 15.5757 4.45071 15.1557 4.67551 14.8821C5.05151 14.4261 5.42271 13.9685 5.79711 13.5069C6.51071 12.6237 6.99151 12.3677 7.52591 12.5925C7.74271 12.6853 7.96031 12.8253 8.18431 12.9725C8.78111 13.3677 9.61071 13.9101 10.7035 13.3213C11.4555 12.9101 11.8899 12.2045 12.2691 11.5933C12.4243 11.3445 12.5715 11.0965 12.7427 10.8717ZM7.40799 5.3512C8.50399 5.3512 9.39599 6.244 9.39599 7.34C9.39599 8.436 8.50399 9.328 7.40799 9.328C6.31119 9.328 5.41999 8.436 5.41999 7.34C5.41999 6.244 6.31119 5.3512 7.40799 5.3512Z" fill="#1A1926"/>
</svg>
