<svg width="30" height="30" viewBox="0 0 30 30" fill="none" xmlns="http://www.w3.org/2000/svg">
<circle cx="15" cy="15" r="15" fill="url(#paint0_radial_2065_287)"/>
<mask id="mask0_2065_287" style="mask-type:alpha" maskUnits="userSpaceOnUse" x="0" y="0" width="30" height="30">
<circle cx="15" cy="15" r="15" fill="#C4C4C4"/>
</mask>
<g mask="url(#mask0_2065_287)">
<path d="M19.0856 21.911L14.9998 25.3517L10.914 21.911C8.79865 20.1296 7.57771 17.5052 7.57771 14.7397V13.6325C7.57766 9.53341 10.9007 6.2104 14.9998 6.2104C19.0989 6.2104 22.4219 9.53341 22.4219 13.6325V14.7397C22.4219 17.5052 21.201 20.1296 19.0856 21.911Z" fill="url(#paint1_linear_2065_287)"/>
<path d="M22.6925 24.0752L18.5754 22.8643C18.0767 22.7176 17.7341 22.2598 17.7341 21.74V19.8824H12.2651V21.74C12.2651 22.2599 11.9227 22.7176 11.4239 22.8643L7.30677 24.0752C6.30928 24.3686 5.62428 25.284 5.62428 26.3238V29.2577C5.62428 29.9049 6.14898 30.4296 6.7962 30.4296H23.203C23.8502 30.4296 24.3749 29.9049 24.3749 29.2577V26.3238C24.375 25.284 23.69 24.3686 22.6925 24.0752Z" fill="url(#paint2_linear_2065_287)"/>
<path d="M22.6925 24.0755L18.5754 22.8646C18.5058 22.8441 18.4401 22.8163 18.3771 22.7844L14.9995 25.3516L11.6224 22.7844C11.5593 22.8163 11.4936 22.8441 11.424 22.8646L7.30677 24.0755C6.30928 24.3689 5.62428 25.2843 5.62428 26.3241V29.258C5.62428 29.9053 6.14898 30.43 6.7962 30.43H23.203C23.8502 30.43 24.3749 29.9053 24.3749 29.258V26.3241C24.375 25.2843 23.69 24.3689 22.6925 24.0755Z" fill="url(#paint3_linear_2065_287)"/>
<path d="M12.2653 20.7541C13.086 21.1925 14.0167 21.445 14.9998 21.445C15.9829 21.445 16.9136 21.1925 17.7343 20.7541V19.8824H12.2653V20.7541Z" fill="url(#paint4_linear_2065_287)"/>
<path d="M20.2734 14.0232H20.0782V9.7262H9.92154V14.0232H9.72625C9.18689 14.0232 8.74967 14.4604 8.74967 14.9998C8.74967 15.5392 9.18689 15.9764 9.72625 15.9764H9.9413C10.1414 18.5979 12.327 20.6641 14.9998 20.6641C17.6727 20.6641 19.8583 18.5979 20.0584 15.9764H20.2734C20.8128 15.9764 21.25 15.5391 21.25 14.9998C21.2501 14.4604 20.8128 14.0232 20.2734 14.0232Z" fill="url(#paint5_linear_2065_287)"/>
<path d="M20.0782 9.7262H9.92155V14.0232H9.78201C9.27116 14.0232 8.80563 14.3908 8.75473 14.8991C8.69618 15.4836 9.15364 15.9764 9.72626 15.9764H9.94131C10.1414 18.5979 12.3271 20.6641 14.9999 20.6641C15.2671 20.6641 15.5276 20.638 15.7836 20.5982C13.3496 20.2227 11.4841 18.1249 11.4841 15.5858V12.7794C11.4841 12.2702 11.961 11.9016 12.4554 12.0234C13.089 12.1795 13.7519 12.3104 14.4327 12.4C14.4795 12.4062 14.5258 12.4091 14.5712 12.4091C14.9209 12.4091 15.2474 12.235 15.4445 11.9433C15.592 11.7249 15.6514 11.4635 15.6173 11.2089C16.7989 11.5162 18.5759 12.189 20.0781 13.5858V9.7262H20.0782Z" fill="url(#paint6_linear_2065_287)"/>
<path d="M12.656 15.2294C12.4401 15.2294 12.2653 15.0545 12.2653 14.8388V14.4481C12.2653 14.2324 12.4401 14.0575 12.656 14.0575C12.8719 14.0575 13.0466 14.2324 13.0466 14.4481V14.8388C13.0466 15.0545 12.8719 15.2294 12.656 15.2294Z" fill="url(#paint7_radial_2065_287)"/>
<path d="M17.3435 15.2294C17.1275 15.2294 16.9528 15.0544 16.9528 14.8387V14.4481C16.9528 14.2323 17.1275 14.0574 17.3435 14.0574C17.5594 14.0574 17.7341 14.2323 17.7341 14.4481V14.8387C17.7341 15.0544 17.5594 15.2294 17.3435 15.2294Z" fill="url(#paint8_radial_2065_287)"/>
<path d="M13.0466 13.6323H12.2653C12.0494 13.6323 11.8746 13.4574 11.8746 13.2417C11.8746 13.026 12.0494 12.851 12.2653 12.851H13.0466C13.2625 12.851 13.4372 13.026 13.4372 13.2417C13.4372 13.4574 13.2625 13.6323 13.0466 13.6323Z" fill="url(#paint9_linear_2065_287)"/>
<path d="M17.7343 13.6323H16.953C16.7371 13.6323 16.5623 13.4574 16.5623 13.2417C16.5623 13.026 16.7371 12.851 16.953 12.851H17.7343C17.9502 12.851 18.1249 13.026 18.1249 13.2417C18.1249 13.4574 17.9502 13.6323 17.7343 13.6323Z" fill="url(#paint10_linear_2065_287)"/>
<path d="M14.9998 17.9296C14.4138 17.9296 13.8729 17.7416 13.5536 17.4265C13.3998 17.275 13.3983 17.0276 13.5498 16.8741C13.7012 16.7206 13.9492 16.7188 14.1022 16.8703C14.2322 16.9987 14.5454 17.1484 14.9998 17.1484C15.4541 17.1484 15.7673 16.9987 15.8974 16.8703C16.0504 16.7188 16.2984 16.7206 16.4498 16.8741C16.6013 17.0276 16.5998 17.275 16.446 17.4265C16.1266 17.7416 15.5857 17.9296 14.9998 17.9296Z" fill="#B67F5F"/>
<path d="M9.14005 14.207L10.0126 14.1044C10.4061 14.0581 10.7026 13.7246 10.7026 13.3284V9.7262H9.14005V14.207Z" fill="url(#paint11_linear_2065_287)"/>
<path d="M20.8592 14.2071L19.9866 14.1044C19.5931 14.0581 19.2966 13.7247 19.2966 13.3284V9.72621H20.8592V14.2071Z" fill="url(#paint12_linear_2065_287)"/>
<path d="M21.4145 9.91102C20.1292 7.70052 17.741 6.2104 14.9998 6.2104C12.3213 6.2104 9.98128 7.63405 8.67612 9.7611V9.8756C9.93499 10.4472 12.1359 11.3095 14.5346 11.6254C14.7436 11.6529 14.9038 11.4407 14.8252 11.2451L14.5766 10.627C14.4953 10.4248 14.6669 10.2131 14.8817 10.2501C15.9783 10.4389 18.7221 11.1046 20.8594 13.2419L21.4145 9.91102Z" fill="url(#paint13_linear_2065_287)"/>
<path d="M14.9998 6.2104C12.3213 6.2104 9.98128 7.63405 8.67612 9.7611V9.87559C8.97139 10.0097 9.32252 10.1603 9.71191 10.3156C10.8191 8.55698 12.7726 7.38232 14.9998 7.38232C17.9146 7.38232 20.3626 9.39074 21.0506 12.0944L21.4145 9.91102C20.1292 7.70052 17.741 6.2104 14.9998 6.2104Z" fill="url(#paint14_linear_2065_287)"/>
<path d="M14.9997 5.81936C10.6916 5.81936 7.18694 9.32425 7.18694 13.6321V14.7394C7.18694 17.6266 8.45383 20.3493 10.6623 22.2096L14.6091 25.5333V30.4296H15.3904V25.5333L19.3372 22.2096V22.2094C21.5456 20.3493 22.8125 17.6266 22.8125 14.7394V13.6321C22.8125 9.32425 19.3078 5.81936 14.9997 5.81936ZM22.0312 14.7394C22.0312 17.3956 20.8658 19.9004 18.8336 21.6118L14.9997 24.8407L11.1658 21.612C9.13364 19.9004 7.96821 17.3956 7.96821 14.7394V13.6321C7.96821 9.75493 11.1227 6.60064 14.9997 6.60064C18.8767 6.60064 22.0312 9.75493 22.0312 13.6321V14.7394Z" fill="url(#paint15_linear_2065_287)"/>
<path d="M14.9998 25.3522C14.5701 25.3522 14.2185 25.7037 14.2185 26.1334V26.9147C14.2185 27.3444 14.5701 27.696 14.9998 27.696C15.4295 27.696 15.7811 27.3444 15.7811 26.9147V26.1334C15.7811 25.7037 15.4295 25.3522 14.9998 25.3522Z" fill="url(#paint16_linear_2065_287)"/>
<path d="M8.87497 26.9374L6.31704 24.6636C6.13002 24.8497 5.97813 25.0673 5.86286 25.3051L8.35618 27.5215C8.60604 27.7437 8.74951 28.0628 8.74951 28.3973V30.4301H9.53079V28.3973C9.53075 27.8398 9.29195 27.3076 8.87497 26.9374Z" fill="url(#paint17_linear_2065_287)"/>
<path d="M21.1243 26.9374L23.6823 24.6636C23.8693 24.8497 24.0212 25.0673 24.1364 25.3051L21.6432 27.5215C21.3933 27.7437 21.2498 28.0628 21.2498 28.3973V30.4301H20.4686V28.3973C20.4686 27.8398 20.7074 27.3076 21.1243 26.9374Z" fill="url(#paint18_linear_2065_287)"/>
</g>
<defs>
<radialGradient id="paint0_radial_2065_287" cx="0" cy="0" r="1" gradientUnits="userSpaceOnUse" gradientTransform="translate(4.6875 3.125) rotate(50.4206) scale(30.409)">
<stop offset="0.552731" stop-color="#E3D7D2"/>
<stop offset="1" stop-color="#D3AE9E"/>
</radialGradient>
<linearGradient id="paint1_linear_2065_287" x1="14.9998" y1="6.2104" x2="14.9998" y2="25.3517" gradientUnits="userSpaceOnUse">
<stop stop-color="#78A8EB"/>
<stop offset="1" stop-color="#99BBEB"/>
</linearGradient>
<linearGradient id="paint2_linear_2065_287" x1="12.4999" y1="21.5621" x2="15.3417" y2="25.2451" gradientUnits="userSpaceOnUse">
<stop stop-color="#E6AC82"/>
<stop offset="1" stop-color="#F2CBAF"/>
</linearGradient>
<linearGradient id="paint3_linear_2065_287" x1="14.9996" y1="22.7844" x2="14.9996" y2="30.43" gradientUnits="userSpaceOnUse">
<stop stop-color="#78A8EB"/>
<stop offset="1" stop-color="#99BBEB"/>
</linearGradient>
<linearGradient id="paint4_linear_2065_287" x1="12.4993" y1="20.6637" x2="14.7511" y2="23.6202" gradientUnits="userSpaceOnUse">
<stop stop-color="#E6A470"/>
<stop offset="1" stop-color="#E6A370" stop-opacity="0"/>
</linearGradient>
<linearGradient id="paint5_linear_2065_287" x1="11.5618" y1="11.8325" x2="19.0144" y2="19.1041" gradientUnits="userSpaceOnUse">
<stop stop-color="#F3B68A"/>
<stop offset="1" stop-color="#FED5B8"/>
</linearGradient>
<linearGradient id="paint6_linear_2065_287" x1="10.4438" y1="9.88793" x2="14.1084" y2="20.767" gradientUnits="userSpaceOnUse">
<stop stop-color="#EBA873"/>
<stop offset="1" stop-color="#EBA773" stop-opacity="0"/>
</linearGradient>
<radialGradient id="paint7_radial_2065_287" cx="0" cy="0" r="1" gradientUnits="userSpaceOnUse" gradientTransform="translate(12.5004 14.408) rotate(71.565) scale(0.988186 0.658792)">
<stop stop-color="#040404"/>
<stop offset="1" stop-color="#767676"/>
</radialGradient>
<radialGradient id="paint8_radial_2065_287" cx="0" cy="0" r="1" gradientUnits="userSpaceOnUse" gradientTransform="translate(17.1879 14.4079) rotate(71.565) scale(0.988186 0.658791)">
<stop stop-color="#040404"/>
<stop offset="1" stop-color="#767676"/>
</radialGradient>
<linearGradient id="paint9_linear_2065_287" x1="12.1875" y1="12.8121" x2="12.6559" y2="13.6323" gradientUnits="userSpaceOnUse">
<stop stop-color="#6E5A64"/>
<stop offset="1" stop-color="#6E5A64" stop-opacity="0.86"/>
</linearGradient>
<linearGradient id="paint10_linear_2065_287" x1="16.8752" y1="12.8121" x2="17.3436" y2="13.6323" gradientUnits="userSpaceOnUse">
<stop stop-color="#6E5A64"/>
<stop offset="1" stop-color="#6E5A64" stop-opacity="0.86"/>
</linearGradient>
<linearGradient id="paint11_linear_2065_287" x1="9.68742" y1="10.3124" x2="9.5984" y2="14.3568" gradientUnits="userSpaceOnUse">
<stop stop-color="#473A41"/>
<stop offset="1" stop-color="#6E5A64"/>
</linearGradient>
<linearGradient id="paint12_linear_2065_287" x1="19.844" y1="10.3125" x2="19.755" y2="14.3568" gradientUnits="userSpaceOnUse">
<stop stop-color="#473A41"/>
<stop offset="1" stop-color="#6E5A64"/>
</linearGradient>
<linearGradient id="paint13_linear_2065_287" x1="10.9376" y1="8.43742" x2="19.7903" y2="14.01" gradientUnits="userSpaceOnUse">
<stop stop-color="#473A41"/>
<stop offset="1" stop-color="#6E5A64"/>
</linearGradient>
<linearGradient id="paint14_linear_2065_287" x1="15.0001" y1="6.87492" x2="17.5001" y2="11.5624" gradientUnits="userSpaceOnUse">
<stop stop-color="#64505A"/>
<stop offset="1" stop-color="#64505A" stop-opacity="0"/>
</linearGradient>
<linearGradient id="paint15_linear_2065_287" x1="14.9997" y1="5.81936" x2="14.9997" y2="30.4296" gradientUnits="userSpaceOnUse">
<stop stop-color="#A5CDFF"/>
<stop offset="0.600905" stop-color="#BDDAFF"/>
</linearGradient>
<linearGradient id="paint16_linear_2065_287" x1="14.9998" y1="25.3522" x2="14.9998" y2="27.696" gradientUnits="userSpaceOnUse">
<stop stop-color="#473A41"/>
<stop offset="1" stop-color="#6E5A64"/>
</linearGradient>
<linearGradient id="paint17_linear_2065_287" x1="7.69683" y1="24.6636" x2="7.69683" y2="30.4301" gradientUnits="userSpaceOnUse">
<stop offset="0.21875" stop-color="#A5CDFF"/>
<stop offset="1" stop-color="#D9EAFF"/>
</linearGradient>
<linearGradient id="paint18_linear_2065_287" x1="22.3025" y1="24.6636" x2="22.3025" y2="30.4301" gradientUnits="userSpaceOnUse">
<stop offset="0.21875" stop-color="#A5CDFF"/>
<stop offset="1" stop-color="#D9EAFF"/>
</linearGradient>
</defs>
</svg>
