<svg width="16" height="16" viewBox="0 0 16 16" fill="none" xmlns="http://www.w3.org/2000/svg">
<path d="M14.4 8C14.4 11.5354 11.5347 14.4 8 14.4C4.46528 14.4 1.6 11.5354 1.6 8C1.6 4.46592 4.46528 1.6 8 1.6C11.5347 1.6 14.4 4.46592 14.4 8Z" fill="white"/>
<path opacity="0.25" d="M14.4 8C14.4 11.5354 11.5347 14.4 8 14.4C4.46528 14.4 1.6 11.5354 1.6 8C1.6 4.46592 4.46528 1.6 8 1.6C11.5347 1.6 14.4 4.46592 14.4 8Z" fill="#1A1926"/>
<path d="M10.2862 10.4411C10.2024 10.4411 10.1179 10.4194 10.0405 10.3739L7.52784 8.87504C7.3832 8.788 7.29424 8.6312 7.29424 8.46224V5.23216C7.29424 4.9672 7.50928 4.75216 7.77424 4.75216C8.0392 4.75216 8.25424 4.9672 8.25424 5.23216V8.1896L10.5326 9.54832C10.7598 9.68464 10.8347 9.97904 10.699 10.2069C10.6088 10.3573 10.4494 10.4411 10.2862 10.4411Z" fill="#1A1926"/>
</svg>
